<?xml version="1.0" encoding="UTF-8"?>
<svg version="1.1" xmlns="http://www.w3.org/2000/svg" width="276" height="276">
<path d="M0 0 C91.08 0 182.16 0 276 0 C276 91.08 276 182.16 276 276 C184.92 276 93.84 276 0 276 C0 184.92 0 93.84 0 0 Z " fill="#FEFDFD" transform="translate(0,0)"/>
<path d="M0 0 C91.08 0 182.16 0 276 0 C276 91.08 276 182.16 276 276 C184.92 276 93.84 276 0 276 C0 184.92 0 93.84 0 0 Z M38 45 C29.50497322 56.09834144 27.39400235 68.70286441 27.49829102 82.35229492 C27.49449638 83.73698981 27.48898701 85.12168087 27.48191833 86.50636292 C27.4680991 90.2253196 27.47903493 93.94380664 27.49562955 97.66273665 C27.50960557 101.57645533 27.50300614 105.49015018 27.49949646 109.40388489 C27.49680512 115.96944644 27.51018 122.53482404 27.53344727 129.1003418 C27.56008357 136.66846604 27.56178952 144.23628366 27.5500589 151.80443877 C27.53924706 159.11885983 27.54549269 166.43317102 27.55961418 173.74758339 C27.56534118 176.84582459 27.56531749 179.94398451 27.56054878 183.04222679 C27.55574499 186.69419364 27.56601979 190.34582837 27.58750343 193.99773216 C27.59563856 195.96137282 27.58925843 197.92505719 27.58230591 199.88870239 C27.688604 212.65749731 30.8313315 223.22951018 39.5625 232.8125 C40.366875 233.534375 41.17125 234.25625 42 235 C42.825 235.86625 43.65 236.7325 44.5 237.625 C48.34918872 241.28172928 50.61532988 243 56 243 C56 243.66 56 244.32 56 245 C62.90630667 247.592864 69.82414857 247.28930996 77.11425781 247.2746582 C78.54570277 247.27901031 79.97714539 247.28419512 81.40858459 247.29014587 C85.28277847 247.30349644 89.15687454 247.30411874 93.03108692 247.30158257 C96.27376259 247.30050974 99.51641872 247.30540442 102.75909019 247.310188 C110.41574307 247.3212705 118.07234689 247.32172829 125.72900391 247.31567383 C133.6059732 247.30964046 141.48276358 247.32193168 149.35970235 247.3432439 C156.14043791 247.36091001 162.92111679 247.36685321 169.70187449 247.36360615 C173.74367435 247.36180043 177.7853467 247.36435762 181.82712555 247.37832069 C185.63246289 247.39097554 189.43752346 247.38888336 193.24285698 247.37590981 C194.63149297 247.37356067 196.0201489 247.37621834 197.40876198 247.38453293 C206.67180448 247.4359531 216.06144774 247.29236818 224 242 C224 241.34 224 240.68 224 240 C224.825 239.835 225.65 239.67 226.5 239.5 C235.79334879 235.51713623 240.28826645 226.99035807 244 218 C245.07343841 214.5858941 245.13076195 211.42302492 245.14044189 207.85372925 C245.14615204 206.59214493 245.15186218 205.33056061 245.15774536 204.03074646 C245.15899066 202.63491831 245.16011576 201.23909005 245.16113281 199.84326172 C245.16576294 198.37122982 245.17078787 196.89919911 245.17617798 195.4271698 C245.18928828 191.4289293 245.19574467 187.43070559 245.20018864 183.43244696 C245.20312257 180.93176009 245.20722806 178.43107778 245.21169281 175.93039322 C245.22536633 168.0986136 245.23503277 160.26684443 245.2388947 152.43505371 C245.24337029 143.40934691 245.26089556 134.38379194 245.2898953 125.35813129 C245.31155607 118.37281102 245.32160138 111.38753332 245.32293582 104.40217984 C245.32398103 100.23460176 245.32982766 96.06716644 245.34775543 91.89962387 C245.36431153 87.97451425 245.36635535 84.04965349 245.35761642 80.12452126 C245.35684997 78.69031034 245.36113667 77.25608564 245.37107468 75.82190895 C245.46362651 61.62340813 243.03577736 51.40542312 233.046875 40.95703125 C222.27855547 31.01541342 210.94911049 29.69677151 196.75634766 29.7253418 C195.32313269 29.72098843 193.88992005 29.71580321 192.45671082 29.70985413 C188.58264326 29.69651964 184.70867359 29.69587927 180.83458757 29.69841743 C177.59176748 29.69949097 174.34896688 29.69459395 171.10615098 29.689812 C163.45096067 29.67873589 155.79581944 29.67826864 148.140625 29.68432617 C140.26304699 29.69036417 132.38564768 29.67805507 124.50810015 29.6567561 C117.72651081 29.63909962 110.94497814 29.63314513 104.16336668 29.63639385 C100.12105468 29.6382005 96.07887016 29.63563267 92.03657913 29.62167931 C88.23287307 29.60903955 84.42944411 29.61110262 80.62574196 29.62409019 C79.23668509 29.62644226 77.84760834 29.62377088 76.4585743 29.61546707 C60.82335856 29.52880019 48.8878549 33.4570667 38 45 Z " fill="#FEFEFD" transform="translate(0,0)"/>
<path d="M0 0 C1.22496689 -0.0071553 2.44993378 -0.01431061 3.71202087 -0.02168274 C5.06167577 -0.02452268 6.41133094 -0.02723444 7.76098633 -0.02983093 C9.18889021 -0.03610079 10.61679248 -0.04274805 12.04469299 -0.04974365 C16.72745642 -0.07073225 21.41021996 -0.08114425 26.09301758 -0.09111023 C27.71016456 -0.09516036 29.32731137 -0.09927735 30.94445801 -0.10346031 C38.54717888 -0.1225041 46.14989011 -0.13673431 53.75263023 -0.14507228 C62.50214297 -0.15482843 71.25140163 -0.18110876 80.00082493 -0.22157317 C86.77984348 -0.25183855 93.55878966 -0.26655116 100.33787441 -0.26985329 C104.37871534 -0.27219277 108.41928461 -0.28100758 112.46005249 -0.30631447 C116.26869015 -0.32978224 120.07688091 -0.33375443 123.88557243 -0.32355309 C125.27338088 -0.32306205 126.66121274 -0.32925299 128.0489521 -0.34310913 C140.82233389 -0.46337434 151.92081278 1.38920863 161.75317383 10.01045227 C169.92452118 18.1224795 175.00737938 27.67121822 175.0526886 39.28671265 C175.06342155 41.17692139 175.06342155 41.17692139 175.07437134 43.10531616 C175.07721145 44.49955725 175.0799232 45.8937986 175.08251953 47.28804016 C175.08878715 48.75844991 175.09543421 50.22885808 175.10243225 51.69926453 C175.12344583 56.52694095 175.13383454 61.35461758 175.14379883 66.18232727 C175.14784789 67.84749811 175.15196486 69.51266878 175.15614891 71.17783928 C175.17519745 79.00481265 175.18942719 86.83177663 175.19776088 94.65876871 C175.20752167 103.6760204 175.23381221 112.69302585 175.27426177 121.71019083 C175.30449264 128.69043016 175.31923648 135.6705992 175.32254189 142.65090269 C175.32488512 146.81465206 175.33374973 150.9781383 175.35900307 155.14181709 C175.3824102 159.06451945 175.38646681 162.98678779 175.37624168 166.90954208 C175.37574921 168.34172834 175.38198375 169.77393688 175.39579773 171.20605659 C175.50855401 183.59882519 173.47175621 193.82808006 164.90551758 203.14717102 C161.47542906 206.55493793 158.75650446 209.22569535 153.90551758 210.14717102 C153.90551758 210.80717102 153.90551758 211.46717102 153.90551758 212.14717102 C144.20442947 216.5027616 136.37089817 217.43968675 125.7277832 217.40596008 C124.28984907 217.4086731 122.85191633 217.41223577 121.41398621 217.4165802 C117.52352402 217.42566958 113.63316835 217.42217424 109.74270439 217.41582203 C105.66338701 217.41074413 101.5840785 217.41545845 97.50476074 217.41859436 C90.65541961 217.42222879 83.80612167 217.41744864 76.95678711 217.40791321 C69.04796274 217.39702966 61.13924151 217.40055561 53.23041964 217.41156602 C46.42936717 217.4206538 39.62834568 217.42191688 32.8272891 217.41668868 C28.76999948 217.41357718 24.71275828 217.41313707 20.6554718 217.41976166 C16.84034226 217.4255562 13.02534517 217.42149979 9.21022987 217.40997314 C7.81346672 217.40733781 6.41669233 217.40807233 5.0199337 217.41249847 C-7.97651565 217.4498728 -7.97651565 217.4498728 -14.09448242 215.14717102 C-14.09448242 214.48717102 -14.09448242 213.82717102 -14.09448242 213.14717102 C-14.96073242 213.06467102 -15.82698242 212.98217102 -16.71948242 212.89717102 C-25.03218949 211.04990278 -30.09278462 204.43931835 -34.76635742 197.75654602 C-41.25953267 187.53461668 -42.54097113 178.16851659 -42.49853516 166.18305969 C-42.50424978 164.80367484 -42.51121823 163.4242947 -42.51933289 162.04492188 C-42.53716196 158.32568238 -42.53611507 154.60668014 -42.5303905 150.88741088 C-42.52728279 147.76903055 -42.53340879 144.65069476 -42.53942925 141.5323208 C-42.5534401 134.16748977 -42.55194281 126.80277481 -42.54052734 119.4379425 C-42.52905777 111.87160268 -42.54310995 104.30561781 -42.56992382 96.73932475 C-42.59216892 90.21495724 -42.59869823 83.69070042 -42.59284741 77.16629773 C-42.58949658 73.28205536 -42.5917663 69.39804022 -42.60909843 65.51383018 C-42.62470626 61.85692085 -42.62046136 58.20053185 -42.60179329 54.54364204 C-42.59642335 52.58410424 -42.61051679 50.62454229 -42.62548828 48.66505432 C-42.51572086 35.29057149 -39.01049408 22.74384463 -29.87182617 12.70576477 C-21.30092122 4.46085304 -11.91112539 0.04790616 0 0 Z M-12.96948242 40.58467102 C-13.5237793 41.16088196 -14.07807617 41.7370929 -14.64916992 42.33076477 C-17.53476089 45.95725072 -18.34446981 48.74018297 -18.34172058 53.36694336 C-18.34591507 54.42276611 -18.35010956 55.47858887 -18.35443115 56.56640625 C-18.34881165 57.71929642 -18.34319214 58.87218658 -18.33740234 60.06001282 C-18.33930069 61.27818695 -18.34119904 62.49636108 -18.34315491 63.75144958 C-18.34622422 67.08804272 -18.34035669 70.42438799 -18.33020186 73.76095176 C-18.32141588 77.25051454 -18.32317888 80.74007319 -18.32356262 84.22964478 C-18.32262655 90.0863723 -18.31394824 95.94304796 -18.30029297 101.79975891 C-18.28454605 108.57879205 -18.27929565 115.35776848 -18.28002852 122.13681859 C-18.28063792 128.65298609 -18.27554201 135.16913507 -18.26723671 141.68529701 C-18.26369898 144.46160336 -18.26187277 147.23790316 -18.261343 150.01421165 C-18.26015602 153.88366594 -18.25046072 157.75307261 -18.23974609 161.62251282 C-18.24019928 162.78147568 -18.24065247 163.94043854 -18.24111938 165.13452148 C-18.2368544 166.18188477 -18.23258942 167.22924805 -18.22819519 168.30834961 C-18.22651935 169.22402553 -18.2248435 170.13970144 -18.22311687 171.08312511 C-18.32354362 173.13869481 -18.32354362 173.13869481 -17.09448242 174.14717102 C-15.31763174 174.32868747 -13.53436147 174.44781956 -11.75073242 174.54170227 C-10.61853271 174.60784729 -9.48633301 174.67399231 -8.31982422 174.74214172 C-6.47578003 174.84981873 -6.47578003 174.84981873 -4.59448242 174.95967102 C22.7244029 176.75781851 46.13828169 181.10289527 69.90551758 195.14717102 C70.43661133 194.72564758 70.96770508 194.30412415 71.51489258 193.86982727 C72.57450195 193.04804993 72.57450195 193.04804993 73.65551758 192.20967102 C74.35161133 191.66439758 75.04770508 191.11912415 75.76489258 190.55732727 C77.86643886 189.17291448 79.44873557 188.58430115 81.90551758 188.14717102 C81.90551758 187.48717102 81.90551758 186.82717102 81.90551758 186.14717102 C82.47657227 185.97701477 83.04762695 185.80685852 83.63598633 185.63154602 C84.44680664 185.38920227 85.25762695 185.14685852 86.09301758 184.89717102 C87.46973633 184.48724915 87.46973633 184.48724915 88.87426758 184.06904602 C90.90099013 183.45267163 92.92196616 182.8170872 94.93676758 182.16279602 C108.9948121 177.63916783 122.17078651 175.69298988 136.84301758 175.45967102 C138.31635268 175.42637439 139.78966108 175.3918742 141.26293945 175.3561554 C144.81026808 175.27269873 148.35767157 175.20524827 151.90551758 175.14717102 C153.14843754 172.66133109 153.03963664 170.99020076 153.0526886 168.20828247 C153.0598439 167.16388 153.06699921 166.11947754 153.07437134 165.04342651 C153.07706024 163.89277206 153.07974915 162.74211761 153.08251953 161.55659485 C153.09237633 159.74422836 153.09237633 159.74422836 153.10243225 157.89524841 C153.12220402 153.88156388 153.13383762 149.86791937 153.14379883 145.85420227 C153.14784651 144.47187976 153.15196344 143.08955744 153.15614891 141.70723534 C153.17520506 135.21083246 153.18943336 128.71444095 153.19776088 122.21801549 C153.20752561 114.72431493 153.23382302 107.23091035 153.27426177 99.73731405 C153.30445596 93.94272992 153.319233 88.14823046 153.32254189 82.35356921 C153.3248893 78.89412636 153.33380816 75.43499955 153.35900307 71.97564125 C153.38668732 68.11190532 153.38244252 64.24855611 153.37548828 60.38471985 C153.38829834 59.24418655 153.4011084 58.10365326 153.41430664 56.92855835 C153.37167069 50.42921935 152.79721116 46.42347628 148.90551758 41.14717102 C146.05559581 38.43974534 143.83062675 36.72866868 139.90551758 36.14717102 C139.90551758 35.48717102 139.90551758 34.82717102 139.90551758 34.14717102 C104.36372022 32.86561254 104.36372022 32.86561254 72.71801758 47.14717102 C72.08508789 47.76592102 71.4521582 48.38467102 70.80004883 49.02217102 C68.90551758 50.14717102 68.90551758 50.14717102 66.52270508 49.58076477 C63.59058456 47.97466293 60.93512107 46.15771451 58.21801758 44.20967102 C51.39843427 39.58209663 45.2059406 36.91294392 36.90551758 37.14717102 C36.90551758 36.48717102 36.90551758 35.82717102 36.90551758 35.14717102 C28.47954658 34.32782061 20.12008579 33.93672508 11.65551758 33.89717102 C9.9771582 33.86623352 9.9771582 33.86623352 8.26489258 33.83467102 C0.13765324 33.79633499 -7.09538829 34.27493833 -12.96948242 40.58467102 Z " fill="#FE8620" transform="translate(70.094482421875,29.852828979492188)"/>
<path d="M0 0 C1.34433948 1.41155645 2.68434656 2.82763682 3.99609375 4.26953125 C13.9477545 12.86326558 26.54012995 13.66907104 39 13 C47.8428054 11.77526583 55.46589957 7.80658242 61.625 1.27734375 C63 0 63 0 65.5 0.0625 C68.54712124 1.20517047 69.54750315 2.09500629 71 5 C70.88636271 9.43185428 68.99170462 11.85487463 66 15 C61.1881545 19.32020041 57.52804327 21.7279982 51 22 C51 22.66 51 23.32 51 24 C38.55055776 28.70001415 23.80761076 28.97887605 11.40234375 24.08984375 C10.60957031 23.73019531 9.81679687 23.37054688 9 23 C7.98099609 22.53787109 7.98099609 22.53787109 6.94140625 22.06640625 C5.60547153 21.42157864 4.29673924 20.72041069 3 20 C3 19.34 3 18.68 3 18 C2.29875 17.814375 1.5975 17.62875 0.875 17.4375 C-3.11266804 15.44366598 -5.64203217 12.77274853 -8 9 C-8.58600011 5.61422161 -8.64998596 4.02629362 -6.8125 1.125 C-4.20168562 -0.49550548 -3.03336841 -0.63489106 0 0 Z " fill="#0C3763" transform="translate(108,170)"/>
<path d="M0 0 C3.5593366 0.80176183 5.0587453 2.77632052 7.13671875 5.66015625 C10.72305006 11.43475751 11.30758312 17.06755448 9.7890625 23.69921875 C8.23341857 28.37498942 6.06023171 31.24066226 2.2890625 34.515625 C1.9590625 34.845625 1.6290625 35.175625 1.2890625 35.515625 C-1.38152601 35.65677661 -4.03525988 35.55809607 -6.7109375 35.515625 C-6.7109375 34.855625 -6.7109375 34.195625 -6.7109375 33.515625 C-7.3090625 33.268125 -7.9071875 33.020625 -8.5234375 32.765625 C-12.19036843 30.6702359 -13.40869613 28.27122842 -14.9609375 24.390625 C-16.46120793 16.63922778 -15.45096673 10.67861354 -11.0625 4.109375 C-7.80854441 0.27234067 -4.72481704 -0.0923417 0 0 Z " fill="#023362" transform="translate(176.7109375,114.484375)"/>
<path d="M0 0 C3.13403534 -0.51167924 5.87919501 -0.65284669 9 0 C13.04886765 3.13172083 16.17065972 6.86598876 17 12 C17.71929518 20.13356858 16.61035566 26.31479201 11.875 33 C7.9043927 35.7621616 4.6908821 35.4598904 0 35 C0 34.34 0 33.68 0 33 C-0.86625 32.7215625 -0.86625 32.7215625 -1.75 32.4375 C-5.16504465 30.25566592 -6.79080026 27.78183388 -8 24 C-9.46200364 11.4121487 -9.46200364 11.4121487 -6.25 6.25 C-4.20517699 4.20517699 -2.7083047 2.96725168 0 2 C0 1.34 0 0.68 0 0 Z " fill="#083562" transform="translate(97,115)"/>
<path d="M0 0 C0.66 0.33 1.32 0.66 2 1 C0.97379138 3.2102955 -0.05716794 5.07317497 -1.5625 7 C-4.45825126 11.02887131 -4.32972773 15.13651596 -4 20 C-2.39599069 24.73182745 -0.62912533 27.62115917 3 31 C3 31.66 3 32.32 3 33 C5.31 33 7.62 33 10 33 C10 33.33 10 33.66 10 34 C7.36 34 4.72 34 2 34 C2 33.34 2 32.68 2 32 C1.401875 31.7525 0.80375 31.505 0.1875 31.25 C-3.47943093 29.1546109 -4.69775863 26.75560342 -6.25 22.875 C-7.56311541 16.09057037 -7.18175613 10.39234035 -3.5 4.4375 C-2.40031181 2.8487063 -1.36512508 1.36512508 0 0 Z " fill="#344568" transform="translate(168,116)"/>
<path d="M0 0 C-0.99 1.485 -0.99 1.485 -2 3 C-3.66608987 3.04384447 -5.33380554 3.0396713 -7 3 C-7.61617187 3.32613281 -8.23234375 3.65226563 -8.8671875 3.98828125 C-11.35243602 5.16718119 -13.01833716 5.20534302 -15.75 5.125 C-16.54921875 5.10695312 -17.3484375 5.08890625 -18.171875 5.0703125 C-18.77515625 5.04710937 -19.3784375 5.02390625 -20 5 C-16.9182501 2.94550007 -14.6904243 2.25524191 -11.125 1.375 C-10.09632813 1.11460937 -9.06765625 0.85421875 -8.0078125 0.5859375 C-5.24120939 0.04698884 -2.80715804 -0.11394368 0 0 Z " fill="#FC9D5A" transform="translate(184,207)"/>
<path d="M0 0 C0.66 0.33 1.32 0.66 2 1 C0.97379138 3.2102955 -0.05716794 5.07317497 -1.5625 7 C-3.03193986 9.04443806 -3.56164648 10.54522028 -4 13 C-4.66 13 -5.32 13 -6 13 C-5.49890261 7.73847744 -3.79035827 3.79035827 0 0 Z " fill="#283E65" transform="translate(168,116)"/>
<path d="M0 0 C0.66 0.33 1.32 0.66 2 1 C0.68 1.33 -0.64 1.66 -2 2 C-2 2.66 -2 3.32 -2 4 C-8.4 8.06153846 -8.4 8.06153846 -11.4375 7.75 C-11.953125 7.5025 -12.46875 7.255 -13 7 C-9.93882432 4.37613513 -9.26826873 4 -5 4 C-5 3.34 -5 2.68 -5 2 C-2.625 0.9375 -2.625 0.9375 0 0 Z " fill="#FC9148" transform="translate(157,214)"/>
<path d="M0 0 C4.83628305 0.99043705 9.47618873 1.95698846 14 4 C11 6 11 6 8.5546875 5.64453125 C7.67039062 5.36996094 6.78609375 5.09539062 5.875 4.8125 C4.98554687 4.55082031 4.09609375 4.28914062 3.1796875 4.01953125 C2.46039063 3.68308594 1.74109375 3.34664062 1 3 C0.67 2.01 0.34 1.02 0 0 Z " fill="#FC9146" transform="translate(107,210)"/>
<path d="M0 0 C7.56507592 -1.05911063 7.56507592 -1.05911063 10.96875 1.453125 C12.57739548 3.25905719 13.93018149 4.82780328 15 7 C14.67 7.99 14.34 8.98 14 10 C12.99406757 8.8803014 11.9954151 7.7540588 11 6.625 C10.443125 5.99851562 9.88625 5.37203125 9.3125 4.7265625 C8 3 8 3 8 1 C5.36 1 2.72 1 0 1 C0 0.67 0 0.34 0 0 Z " fill="#2E4065" transform="translate(170,115)"/>
<path d="M0 0 C0 0.66 0 1.32 0 2 C5.28 2 10.56 2 16 2 C16 2.33 16 2.66 16 3 C12.91674642 3.0582253 9.83363495 3.09367134 6.75 3.125 C5.44095703 3.15013672 5.44095703 3.15013672 4.10546875 3.17578125 C3.26113281 3.18222656 2.41679687 3.18867188 1.546875 3.1953125 C0.77182617 3.20578613 -0.00322266 3.21625977 -0.80175781 3.22705078 C-3.25883539 2.97326556 -4.87311542 2.22444152 -7 1 C-2.25 0 -2.25 0 0 0 Z " fill="#717C94" transform="translate(132,194)"/>
<path d="M0 0 C-1 2 -1 2 -4.3125 3.125 C-8 4 -8 4 -12 4 C-12 3.34 -12 2.68 -12 2 C-7.82262526 0.40861915 -4.46839215 -0.21278058 0 0 Z " fill="#FD984F" transform="translate(222,242)"/>
<path d="M0 0 C2.1875 -0.375 2.1875 -0.375 5 0 C6.99022836 1.83961648 8.38989899 3.79186148 10 6 C9.01 6 8.02 6 7 6 C6.67 5.01 6.34 4.02 6 3 C3.69 2.67 1.38 2.34 -1 2 C-0.67 1.34 -0.34 0.68 0 0 Z " fill="#405678" transform="translate(103,170)"/>
<path d="M0 0 C0.763125 0.309375 1.52625 0.61875 2.3125 0.9375 C4.18789677 1.67893593 6.08684652 2.36228217 8 3 C8.33 3.99 8.66 4.98 9 6 C2.42696629 4.1011236 2.42696629 4.1011236 0 1 C0 0.67 0 0.34 0 0 Z " fill="#364A6C" transform="translate(110,187)"/>
<path d="M0 0 C6.75 0.75 6.75 0.75 9 3 C6 4 6 4 2.8125 2.5625 C1.884375 2.046875 0.95625 1.53125 0 1 C0 0.67 0 0.34 0 0 Z " fill="#FC8936" transform="translate(121,216)"/>
<path d="M0 0 C0 0.66 0 1.32 0 2 C-5.41538462 4.21538462 -5.41538462 4.21538462 -8.375 3.125 C-8.91125 2.75375 -9.4475 2.3825 -10 2 C-3.375 0 -3.375 0 0 0 Z " fill="#405174" transform="translate(157,181)"/>
</svg>
